
<svg xmlns="http://www.w3.org/2000/svg" viewBox="0 0 124 47"><defs><style>.cls-1{fill:#96ff00;opacity:0;}.cls-2{fill:#52514f;}.cls-3{fill:#e66a65;}</style></defs><g id="Layer_2" data-name="Layer 2"><g id="알림"><rect class="cls-1" width="124" height="47"/><path class="cls-2" d="M54.59,15.64H50l-3.1,16h-5.3l3.1-16H39.52l-.72-3.59H57.14Z"/><path class="cls-2" d="M67.57,30.75A14.32,14.32,0,0,1,61.75,32q-4.5,0-6.55-2.65c-1.38-1.77-1.78-4.12-1.21-7.07a12.86,12.86,0,0,1,4.37-7.62,12.13,12.13,0,0,1,8.08-2.92,12.35,12.35,0,0,1,4.64.91l-.82,4.85a7.31,7.31,0,0,0-4.2-1.37,6.12,6.12,0,0,0-4.48,1.44A7.18,7.18,0,0,0,59,22a4.81,4.81,0,0,0,.72,4.23c.84,1.13,1.86,1.39,3.66,1.39a10.83,10.83,0,0,0,5-1.45Z"/><path class="cls-3" d="M14.83,30.75A14.32,14.32,0,0,1,9,32q-4.5,0-6.55-2.65C1.08,27.56.68,25.21,1.25,22.26a12.86,12.86,0,0,1,4.37-7.62,12.13,12.13,0,0,1,8.08-2.92,12.35,12.35,0,0,1,4.64.91l-.82,4.85a7.31,7.31,0,0,0-4.2-1.37,6.12,6.12,0,0,0-4.48,1.44A7.18,7.18,0,0,0,6.24,22,4.81,4.81,0,0,0,7,26.18c.84,1.13,1.86,1.39,3.66,1.39a10.83,10.83,0,0,0,5-1.45Z"/><path class="cls-2" d="M87,31.65H82l1.51-7.79h-6.3L75.7,31.65H70.41l3.79-19.6h5.29L78,19.68h6.3l1.48-7.63h5Z"/><polygon class="cls-2" points="96.51 0.5 94.2 11.38 105.04 19.66 90.08 31.58 86.99 46.5 123 19.25 96.51 0.5"/><polygon class="cls-2" points="26.62 12.2 17.17 31.81 23.32 31.81 30.99 14.97 31.7 31.81 37.85 31.81 36.53 12.2 26.62 12.2"/></g></g></svg>